<svg width="23" height="20" viewBox="0 0 23 20" fill="none" xmlns="http://www.w3.org/2000/svg">
<path d="M0.806122 3.62755H21.7653C22.2105 3.62755 22.5714 3.26666 22.5714 2.82143V0.806122C22.5714 0.360891 22.2105 0 21.7653 0H0.806122C0.360891 0 0 0.360891 0 0.806122V2.82143C0 3.26666 0.360891 3.62755 0.806122 3.62755ZM0.806122 11.6888H21.7653C22.2105 11.6888 22.5714 11.3279 22.5714 10.8827V8.86735C22.5714 8.42211 22.2105 8.06122 21.7653 8.06122H0.806122C0.360891 8.06122 0 8.42211 0 8.86735V10.8827C0 11.3279 0.360891 11.6888 0.806122 11.6888ZM0.806122 19.75H21.7653C22.2105 19.75 22.5714 19.3891 22.5714 18.9439V16.9286C22.5714 16.4833 22.2105 16.1224 21.7653 16.1224H0.806122C0.360891 16.1224 0 16.4833 0 16.9286V18.9439C0 19.3891 0.360891 19.75 0.806122 19.75Z" fill="white"/>
</svg>
