<svg width="150" height="29" viewBox="0 0 150 29" fill="none" xmlns="http://www.w3.org/2000/svg">
<rect width="97" height="29" fill="#D9D9D9"/>
<path d="M12.365 11.6378C12.3082 11.0649 12.0643 10.6198 11.6335 10.3026C11.2026 9.98532 10.6178 9.8267 9.87919 9.8267C9.3773 9.8267 8.95353 9.89773 8.60788 10.0398C8.26224 10.1771 7.99709 10.3688 7.81243 10.6151C7.6325 10.8613 7.54254 11.1406 7.54254 11.4531C7.53307 11.7135 7.58752 11.9408 7.70589 12.1349C7.829 12.3291 7.99709 12.4972 8.21016 12.6392C8.42322 12.7765 8.66944 12.8973 8.94879 13.0014C9.22815 13.1009 9.52644 13.1861 9.84368 13.2571L11.1505 13.5696C11.785 13.7116 12.3674 13.901 12.8977 14.1378C13.428 14.3745 13.8872 14.6657 14.2755 15.0114C14.6638 15.357 14.9644 15.7642 15.1775 16.233C15.3953 16.7017 15.5066 17.2391 15.5113 17.8452C15.5066 18.7353 15.2793 19.5071 14.8295 20.1605C14.3844 20.8092 13.7405 21.3134 12.8977 21.6733C12.0596 22.0284 11.0487 22.206 9.86499 22.206C8.69074 22.206 7.66802 22.026 6.7968 21.6662C5.93033 21.3063 5.25324 20.7737 4.76555 20.0682C4.2826 19.358 4.02928 18.4796 4.00561 17.4332H6.98146C7.01461 17.9209 7.15428 18.3281 7.4005 18.6548C7.65144 18.9768 7.98525 19.2206 8.40192 19.3864C8.82332 19.5473 9.29917 19.6278 9.82947 19.6278C10.3503 19.6278 10.8025 19.5521 11.186 19.4006C11.5743 19.2491 11.8749 19.0384 12.088 18.7685C12.3011 18.4986 12.4076 18.1884 12.4076 17.8381C12.4076 17.5114 12.3105 17.2367 12.1164 17.0142C11.927 16.7917 11.6477 16.6023 11.2783 16.446C10.9138 16.2898 10.4663 16.1477 9.93601 16.0199L8.3522 15.6222C7.12588 15.3239 6.1576 14.8575 5.44737 14.223C4.73714 13.5885 4.3844 12.7339 4.38913 11.6591C4.3844 10.7784 4.61877 10.009 5.09226 9.35085C5.57048 8.69271 6.22625 8.17898 7.05959 7.80966C7.89292 7.44034 8.83989 7.25568 9.9005 7.25568C10.98 7.25568 11.9223 7.44034 12.7272 7.80966C13.5369 8.17898 14.1666 8.69271 14.6164 9.35085C15.0662 10.009 15.2982 10.7713 15.3124 11.6378H12.365ZM29.146 7.45455V22H26.4898L20.1616 12.8452H20.0551V22H16.9798V7.45455H19.6787L25.9571 16.6023H26.0849V7.45455H29.146ZM31.0869 22V7.45455H40.888V9.99006H34.1621V13.456H40.3837V15.9915H34.1621V19.4645H40.9164V22H31.0869ZM45.2401 22H41.9446L46.9659 7.45455H50.929L55.9432 22H52.6477L49.0043 10.7784H48.8906L45.2401 22ZM45.0341 16.2827H52.8182V18.6832H45.0341V16.2827ZM57.0939 22V7.45455H60.1692V13.8679H60.3609L65.5953 7.45455H69.2814L63.8837 13.9673L69.3453 22H65.6663L61.682 16.0199L60.1692 17.8665V22H57.0939ZM70.283 22V7.45455H80.0841V9.99006H73.3582V13.456H79.5798V15.9915H73.3582V19.4645H80.1125V22H70.283ZM81.929 22V7.45455H87.6677C88.7662 7.45455 89.7037 7.65104 90.4802 8.04403C91.2614 8.43229 91.8557 8.9839 92.2629 9.69886C92.6748 10.4091 92.8808 11.2448 92.8808 12.206C92.8808 13.1719 92.6724 14.0028 92.2558 14.6989C91.8391 15.3902 91.2354 15.9205 90.4447 16.2898C89.6587 16.6591 88.707 16.8438 87.5896 16.8438H83.7472V14.3722H87.0924C87.6795 14.3722 88.1672 14.2917 88.5555 14.1307C88.9437 13.9697 89.2325 13.7282 89.4219 13.4062C89.6161 13.0843 89.7131 12.6842 89.7131 12.206C89.7131 11.723 89.6161 11.3158 89.4219 10.9844C89.2325 10.6529 88.9414 10.402 88.5484 10.2315C88.1601 10.0563 87.67 9.96875 87.0782 9.96875H85.0043V22H81.929ZM89.7842 15.3807L93.3992 22H90.0043L86.4674 15.3807H89.7842Z" fill="black"/>
<path d="M101.797 22V7.45455H104.872V13.456H111.115V7.45455H114.183V22H111.115V15.9915H104.872V22H101.797ZM119.194 7.45455V22H116.119V7.45455H119.194ZM123.752 7.45455L127.268 18.5057H127.403L130.925 7.45455H134.335L129.32 22H125.357L120.336 7.45455H123.752ZM135.485 22V7.45455H145.286V9.99006H138.561V13.456H144.782V15.9915H138.561V19.4645H145.315V22H135.485Z" fill="white"/>
</svg>
